<?xml version="1.0" standalone="no"?>
<!DOCTYPE svg PUBLIC "-//W3C//DTD SVG 20010904//EN"
 "http://www.w3.org/TR/2001/REC-SVG-20010904/DTD/svg10.dtd">
<svg version="1.0" xmlns="http://www.w3.org/2000/svg"
 width="512.000000pt" height="512.000000pt" viewBox="0 0 512.000000 512.000000"
 preserveAspectRatio="xMidYMid meet">

<g transform="translate(0.000000,512.000000) scale(0.100000,-0.100000)"
fill="#000000" stroke="none">
<path d="M470 3331 c-82 -18 -147 -68 -183 -140 -17 -36 -22 -63 -22 -126 1
-69 4 -86 28 -122 30 -47 57 -75 90 -91 61 -30 118 -52 136 -52 11 0 22 -4 25
-9 3 -4 33 -14 66 -20 73 -15 154 -55 175 -88 22 -33 21 -117 0 -157 -10 -18
-34 -43 -53 -57 -31 -21 -47 -24 -117 -24 -74 0 -86 3 -125 30 -23 16 -58 49
-76 74 -28 36 -34 53 -34 92 l0 49 -55 0 -55 0 0 -180 0 -180 55 0 55 0 0 35
c0 19 4 35 10 35 5 0 40 -17 77 -37 65 -36 72 -38 163 -38 81 0 102 4 144 25
44 22 101 70 131 111 6 8 18 43 27 80 15 58 15 72 2 128 -16 67 -32 98 -73
144 -30 33 -100 71 -151 82 -19 4 -39 11 -45 15 -5 4 -30 11 -55 15 -25 4 -49
11 -55 15 -5 4 -26 11 -45 15 -79 16 -125 70 -122 141 3 71 55 114 146 121 85
7 135 -9 195 -63 42 -38 51 -52 51 -80 l0 -34 55 0 55 0 0 145 0 145 -55 0
c-54 0 -55 0 -55 -30 0 -16 -4 -30 -8 -30 -5 0 -35 14 -68 30 -63 33 -165 46
-234 31z"/>
<path d="M2470 2669 l0 -670 48 3 47 3 3 668 2 667 -50 0 -50 0 0 -671z"/>
<path d="M3320 3270 l0 -60 65 0 65 0 0 -380 0 -380 -65 0 -65 0 0 -60 0 -60
410 0 410 0 0 150 0 150 -55 0 -55 0 0 -90 0 -90 -217 2 -218 3 -3 162 -2 163
182 2 183 3 3 57 3 58 -183 2 -183 3 0 150 0 150 218 3 217 2 0 -90 0 -90 55
0 55 0 0 150 0 150 -410 0 -410 0 0 -60z"/>
<path d="M1260 3009 c-63 -30 -115 -73 -141 -117 -13 -20 -26 -39 -29 -42 -16
-13 -40 -115 -40 -170 0 -154 109 -317 233 -351 23 -6 86 -9 142 -7 84 3 108
8 150 29 53 28 135 117 135 147 0 16 -61 52 -87 52 -6 0 -19 -12 -29 -27 -24
-38 -40 -50 -102 -79 -61 -28 -93 -30 -153 -9 -52 19 -93 56 -122 110 -17 32
-21 58 -22 130 0 78 3 96 25 135 14 24 44 57 67 74 37 25 50 29 112 29 60 0
76 -4 108 -26 35 -24 62 -62 77 -109 4 -14 17 -18 61 -18 l55 0 0 130 0 130
-55 0 c-47 0 -55 -3 -55 -19 0 -10 -7 -21 -15 -25 -8 -3 -15 -2 -15 2 0 4 -15
16 -33 26 -24 15 -56 20 -127 23 -81 3 -102 0 -140 -18z"/>
<path d="M4200 2965 l0 -55 54 0 c31 0 58 -5 64 -12 5 -7 26 -56 46 -108 21
-52 50 -129 66 -170 17 -41 49 -124 73 -185 l43 -110 56 -3 c60 -3 68 2 85 58
6 19 20 58 31 85 11 28 34 88 51 135 17 47 35 93 41 102 5 10 10 23 10 29 0 6
6 25 14 42 7 18 22 55 32 82 l20 50 52 3 52 3 0 55 0 54 -162 -2 -163 -3 -3
-52 -3 -53 47 0 47 0 -7 -32 c-3 -17 -13 -45 -21 -61 -8 -17 -15 -35 -15 -41
0 -6 -6 -22 -13 -36 -7 -14 -26 -61 -42 -105 -34 -95 -51 -129 -58 -118 -9 14
-77 190 -77 199 -1 5 -9 27 -20 49 -11 22 -19 45 -20 51 0 6 -7 25 -16 42 -20
41 -12 52 37 52 l39 0 0 55 0 55 -170 0 -170 0 0 -55z"/>
<path d="M1373 1725 c-15 -11 -23 -26 -23 -46 0 -30 3 -32 93 -68 36 -14 44
-37 22 -61 -25 -27 -54 -25 -87 7 l-28 27 0 -30 c0 -31 -1 -31 77 -34 42 -2
63 18 63 61 0 32 -8 38 -70 59 -40 13 -45 18 -45 45 0 21 5 31 18 33 30 6 67
-7 67 -24 0 -9 6 -14 13 -11 20 6 14 42 -8 44 -11 1 -31 5 -45 8 -15 4 -34 0
-47 -10z"/>
<path d="M2325 1730 c-3 -5 -1 -10 4 -10 6 0 11 5 11 10 0 6 -2 10 -4 10 -3 0
-8 -4 -11 -10z"/>
<path d="M2426 1725 c-9 -9 -16 -24 -16 -34 0 -9 -5 -22 -12 -29 -9 -9 -9 -12
0 -12 17 0 16 -117 0 -123 -7 -3 1 -6 17 -6 l30 -1 -3 61 c-3 44 0 64 10 70
10 6 10 9 1 9 -8 0 -13 13 -13 31 0 27 3 31 21 26 13 -3 19 -1 16 6 -6 19 -33
20 -51 2z"/>
<path d="M2525 1730 c-3 -5 -1 -10 4 -10 6 0 11 5 11 10 0 6 -2 10 -4 10 -3 0
-8 -4 -11 -10z"/>
<path d="M2868 1723 c8 -3 12 -33 12 -98 0 -65 -4 -95 -12 -98 -7 -3 26 -6 75
-6 l87 -1 -1 28 c-2 23 -2 24 -6 5 -4 -21 -10 -23 -59 -23 l-54 0 0 45 0 45
43 1 42 2 -39 6 c-45 7 -62 27 -52 64 6 25 10 27 60 27 49 0 55 -2 59 -22 4
-20 4 -19 6 5 l1 27 -87 -1 c-49 0 -82 -3 -75 -6z"/>
<path d="M2208 1675 c-15 -20 -15 -24 -3 -29 11 -4 15 -22 15 -66 0 -56 2 -60
23 -60 20 1 20 2 5 11 -13 7 -18 23 -18 57 0 27 4 52 8 58 5 5 4 18 -2 30
l-11 21 -17 -22z"/>
<path d="M3653 1675 c-6 -14 -7 -27 -2 -31 5 -3 9 -32 9 -65 0 -54 2 -59 22
-59 17 0 19 3 10 12 -14 14 -16 118 -3 118 5 0 4 11 -2 25 -15 31 -19 31 -34
0z"/>
<path d="M1550 1641 c-35 -35 -37 -53 -9 -92 16 -23 28 -29 58 -29 35 0 61 14
61 33 0 4 -10 1 -22 -7 -12 -9 -30 -16 -39 -16 -26 0 -59 35 -59 62 0 50 63
76 98 41 16 -16 17 -15 20 1 5 22 5 22 -41 30 -33 6 -41 3 -67 -23z"/>
<path d="M1836 1649 c-20 -16 -26 -29 -26 -57 1 -57 19 -74 76 -70 31 2 49 8
52 18 4 12 2 13 -9 3 -14 -14 -67 -17 -85 -5 -6 4 -14 17 -18 30 -7 21 -5 22
58 22 59 0 66 2 66 19 0 22 -44 61 -70 61 -10 0 -29 -9 -44 -21z m82 -11 c25
-25 13 -38 -36 -38 -56 0 -65 5 -51 31 11 22 68 26 87 7z"/>
<path d="M2075 1660 c-11 -4 -33 -5 -50 -2 -28 5 -29 5 -12 -12 22 -22 23 -89
1 -110 -14 -15 -12 -16 23 -16 31 1 35 3 21 11 -43 24 -9 126 39 117 15 -3 19
-15 21 -66 3 -60 4 -62 30 -61 17 1 20 3 10 6 -15 4 -18 16 -18 62 0 74 -16
92 -65 71z"/>
<path d="M2626 1649 c-32 -25 -37 -86 -8 -112 22 -20 83 -22 100 -5 21 21 13
29 -13 12 -54 -35 -110 16 -83 74 16 32 74 44 84 18 8 -22 24 -20 24 3 0 13
-10 20 -31 25 -44 8 -43 8 -73 -15z"/>
<path d="M3300 1663 c-51 -19 -69 -93 -31 -127 23 -21 112 -19 119 2 3 11 0
12 -16 3 -44 -23 -102 -4 -102 35 0 11 15 14 65 14 58 0 65 2 65 19 0 38 -59
69 -100 54z m64 -19 c9 -3 16 -15 16 -25 0 -16 -8 -19 -55 -19 -38 0 -55 4
-55 13 0 31 51 48 94 31z"/>
<path d="M3525 1660 c-11 -4 -33 -6 -50 -4 -16 2 -24 2 -17 -2 7 -3 12 -27 12
-64 0 -37 -5 -60 -12 -63 -7 -3 3 -6 22 -6 20 0 30 3 23 7 -7 4 -13 27 -14 50
-3 44 17 71 54 72 14 0 17 -10 17 -65 0 -64 0 -65 28 -65 23 1 24 2 10 11 -13
7 -18 23 -18 59 0 78 -9 89 -55 70z"/>
<path d="M3756 1654 c-9 -8 -16 -22 -16 -29 0 -17 38 -45 60 -45 22 0 40 -20
33 -36 -6 -16 -59 -19 -68 -4 -9 15 -25 12 -25 -5 0 -21 93 -21 110 0 19 23
-11 63 -52 67 -25 2 -33 8 -33 23 0 26 52 35 61 11 8 -22 24 -20 24 3 0 13
-10 20 -31 25 -43 8 -46 8 -63 -10z"/>
<path d="M1718 1648 c18 -18 15 -94 -4 -112 -14 -15 -12 -16 23 -16 31 1 35 3
21 11 -14 8 -18 23 -18 69 0 50 -3 60 -17 60 -13 0 -14 -3 -5 -12z"/>
<path d="M2308 1648 c7 -7 12 -33 12 -58 0 -25 -5 -51 -12 -58 -9 -9 -4 -12
23 -11 18 0 28 3 22 6 -9 3 -13 27 -13 69 0 59 -2 64 -22 64 -17 0 -19 -3 -10
-12z"/>
<path d="M2508 1648 c7 -7 12 -33 12 -58 0 -25 -5 -51 -12 -58 -9 -9 -4 -12
23 -11 18 0 28 3 22 6 -9 3 -13 27 -13 69 0 59 -2 64 -22 64 -17 0 -19 -3 -10
-12z"/>
<path d="M3068 1653 c8 -3 27 -34 43 -69 15 -35 32 -64 37 -64 8 0 52 92 52
110 0 5 8 14 18 19 14 9 12 10 -15 11 -26 0 -30 -3 -26 -20 7 -25 -15 -80 -32
-80 -6 0 -17 19 -24 41 -10 34 -10 43 1 50 8 6 -2 8 -27 8 -22 0 -34 -3 -27
-6z"/>
</g>
</svg>
